<mxfile host="www.draw.io" modified="2020-05-29T16:47:47.732Z" agent="5.0 (Macintosh; Intel Mac OS X 10_15_4) AppleWebKit/537.36 (KHTML, like Gecko) Chrome/83.0.4103.61 Safari/537.36" etag="ZhQJ6TvFabeVzD5VjPra" version="13.1.3" type="github" pages="2">
  <diagram id="bD53E8nyOGbHJpfK05qM" name="architecture">
    <mxGraphModel dx="1709" dy="935" grid="1" gridSize="10" guides="1" tooltips="1" connect="1" arrows="1" fold="1" page="1" pageScale="1" pageWidth="1100" pageHeight="850" math="0" shadow="0">
      <root>
        <mxCell id="0" />
        <mxCell id="1" parent="0" />
        <mxCell id="vB5PdZS5Am3R0Mzlf7GK-6" style="edgeStyle=orthogonalEdgeStyle;rounded=0;orthogonalLoop=1;jettySize=auto;html=1;exitX=0.25;exitY=1;exitDx=0;exitDy=0;entryX=0.25;entryY=0;entryDx=0;entryDy=0;" parent="1" source="ScOtGIwUI5al1HmJdsSV-1" target="ScOtGIwUI5al1HmJdsSV-12" edge="1">
          <mxGeometry relative="1" as="geometry" />
        </mxCell>
        <mxCell id="ScOtGIwUI5al1HmJdsSV-1" value="PARSER" style="rounded=0;whiteSpace=wrap;html=1;fillColor=#dae8fc;strokeColor=#6c8ebf;" parent="1" vertex="1">
          <mxGeometry x="640" y="160" width="120" height="60" as="geometry" />
        </mxCell>
        <mxCell id="vB5PdZS5Am3R0Mzlf7GK-16" style="edgeStyle=orthogonalEdgeStyle;rounded=0;orthogonalLoop=1;jettySize=auto;html=1;exitX=0.25;exitY=1;exitDx=0;exitDy=0;entryX=0.25;entryY=0;entryDx=0;entryDy=0;" parent="1" source="ScOtGIwUI5al1HmJdsSV-12" target="vB5PdZS5Am3R0Mzlf7GK-3" edge="1">
          <mxGeometry relative="1" as="geometry" />
        </mxCell>
        <mxCell id="vB5PdZS5Am3R0Mzlf7GK-20" style="edgeStyle=orthogonalEdgeStyle;rounded=0;orthogonalLoop=1;jettySize=auto;html=1;exitX=0.75;exitY=0;exitDx=0;exitDy=0;entryX=0.75;entryY=1;entryDx=0;entryDy=0;" parent="1" source="ScOtGIwUI5al1HmJdsSV-12" target="ScOtGIwUI5al1HmJdsSV-1" edge="1">
          <mxGeometry relative="1" as="geometry" />
        </mxCell>
        <mxCell id="ScOtGIwUI5al1HmJdsSV-12" value="PROBABILISTIC&lt;br&gt;REASONING" style="rounded=0;whiteSpace=wrap;html=1;fillColor=#fff2cc;strokeColor=#d6b656;" parent="1" vertex="1">
          <mxGeometry x="640" y="280" width="120" height="60" as="geometry" />
        </mxCell>
        <mxCell id="vB5PdZS5Am3R0Mzlf7GK-14" style="edgeStyle=orthogonalEdgeStyle;rounded=0;orthogonalLoop=1;jettySize=auto;html=1;exitX=0.25;exitY=0;exitDx=0;exitDy=0;entryX=0.25;entryY=1;entryDx=0;entryDy=0;" parent="1" source="vB5PdZS5Am3R0Mzlf7GK-1" target="vB5PdZS5Am3R0Mzlf7GK-2" edge="1">
          <mxGeometry relative="1" as="geometry" />
        </mxCell>
        <mxCell id="vB5PdZS5Am3R0Mzlf7GK-1" value="CONTROL" style="rounded=0;whiteSpace=wrap;html=1;fillColor=#e1d5e7;strokeColor=#9673a6;" parent="1" vertex="1">
          <mxGeometry x="640" y="640" width="120" height="60" as="geometry" />
        </mxCell>
        <mxCell id="vB5PdZS5Am3R0Mzlf7GK-13" style="edgeStyle=orthogonalEdgeStyle;rounded=0;orthogonalLoop=1;jettySize=auto;html=1;exitX=0.75;exitY=1;exitDx=0;exitDy=0;entryX=0.75;entryY=0;entryDx=0;entryDy=0;" parent="1" source="vB5PdZS5Am3R0Mzlf7GK-2" target="vB5PdZS5Am3R0Mzlf7GK-1" edge="1">
          <mxGeometry relative="1" as="geometry" />
        </mxCell>
        <mxCell id="vB5PdZS5Am3R0Mzlf7GK-18" style="edgeStyle=orthogonalEdgeStyle;rounded=0;orthogonalLoop=1;jettySize=auto;html=1;exitX=0.25;exitY=0;exitDx=0;exitDy=0;entryX=0.25;entryY=1;entryDx=0;entryDy=0;" parent="1" source="vB5PdZS5Am3R0Mzlf7GK-2" target="vB5PdZS5Am3R0Mzlf7GK-3" edge="1">
          <mxGeometry relative="1" as="geometry" />
        </mxCell>
        <mxCell id="vB5PdZS5Am3R0Mzlf7GK-2" value="PLANNING" style="rounded=0;whiteSpace=wrap;html=1;fillColor=#f8cecc;strokeColor=#b85450;" parent="1" vertex="1">
          <mxGeometry x="640" y="520" width="120" height="60" as="geometry" />
        </mxCell>
        <mxCell id="vB5PdZS5Am3R0Mzlf7GK-17" style="edgeStyle=orthogonalEdgeStyle;rounded=0;orthogonalLoop=1;jettySize=auto;html=1;exitX=0.75;exitY=1;exitDx=0;exitDy=0;entryX=0.75;entryY=0;entryDx=0;entryDy=0;" parent="1" source="vB5PdZS5Am3R0Mzlf7GK-3" target="vB5PdZS5Am3R0Mzlf7GK-2" edge="1">
          <mxGeometry relative="1" as="geometry" />
        </mxCell>
        <mxCell id="vB5PdZS5Am3R0Mzlf7GK-19" style="edgeStyle=orthogonalEdgeStyle;rounded=0;orthogonalLoop=1;jettySize=auto;html=1;exitX=0.75;exitY=0;exitDx=0;exitDy=0;entryX=0.75;entryY=1;entryDx=0;entryDy=0;" parent="1" source="vB5PdZS5Am3R0Mzlf7GK-3" target="ScOtGIwUI5al1HmJdsSV-12" edge="1">
          <mxGeometry relative="1" as="geometry" />
        </mxCell>
        <mxCell id="vB5PdZS5Am3R0Mzlf7GK-3" value="KNOWLEDGE BASE &amp;amp; &lt;br&gt;LOGICAL&lt;br&gt;REASONING" style="rounded=0;whiteSpace=wrap;html=1;fillColor=#d5e8d4;strokeColor=#82b366;" parent="1" vertex="1">
          <mxGeometry x="640" y="400" width="120" height="60" as="geometry" />
        </mxCell>
        <mxCell id="82JMRniUnQfQmikD1gF7-1" value="ENVIRONMENT" style="rounded=0;whiteSpace=wrap;html=1;" vertex="1" parent="1">
          <mxGeometry x="880" y="160" width="120" height="540" as="geometry" />
        </mxCell>
        <mxCell id="82JMRniUnQfQmikD1gF7-2" value="" style="endArrow=classic;html=1;entryX=1;entryY=0.5;entryDx=0;entryDy=0;exitX=-0.008;exitY=0.056;exitDx=0;exitDy=0;exitPerimeter=0;" edge="1" parent="1" source="82JMRniUnQfQmikD1gF7-1" target="ScOtGIwUI5al1HmJdsSV-1">
          <mxGeometry width="50" height="50" relative="1" as="geometry">
            <mxPoint x="877" y="190" as="sourcePoint" />
            <mxPoint x="1130" y="430" as="targetPoint" />
          </mxGeometry>
        </mxCell>
        <mxCell id="82JMRniUnQfQmikD1gF7-4" value="Text" style="edgeLabel;html=1;align=center;verticalAlign=middle;resizable=0;points=[];" vertex="1" connectable="0" parent="82JMRniUnQfQmikD1gF7-2">
          <mxGeometry x="0.0311" relative="1" as="geometry">
            <mxPoint as="offset" />
          </mxGeometry>
        </mxCell>
        <mxCell id="82JMRniUnQfQmikD1gF7-3" value="" style="endArrow=classic;html=1;exitX=1;exitY=0.5;exitDx=0;exitDy=0;entryX=-0.018;entryY=0.943;entryDx=0;entryDy=0;entryPerimeter=0;" edge="1" parent="1" source="vB5PdZS5Am3R0Mzlf7GK-1" target="82JMRniUnQfQmikD1gF7-1">
          <mxGeometry width="50" height="50" relative="1" as="geometry">
            <mxPoint x="1080" y="480" as="sourcePoint" />
            <mxPoint x="880" y="667" as="targetPoint" />
          </mxGeometry>
        </mxCell>
      </root>
    </mxGraphModel>
  </diagram>
  <diagram id="wTohVuKzUihbxb-eSNx3" name="word2vec">
    <mxGraphModel dx="1282" dy="701" grid="1" gridSize="10" guides="1" tooltips="1" connect="1" arrows="1" fold="1" page="1" pageScale="1" pageWidth="1100" pageHeight="850" math="1" shadow="0">
      <root>
        <mxCell id="3RL4X9vnwLKiUC88pM-W-0" />
        <mxCell id="3RL4X9vnwLKiUC88pM-W-1" parent="3RL4X9vnwLKiUC88pM-W-0" />
      </root>
    </mxGraphModel>
  </diagram>
</mxfile>
